<svg width="1083" height="1437" viewBox="0 0 1083 1437" fill="none" xmlns="http://www.w3.org/2000/svg">
<path d="M1082.8 715.208L0.203226 1193.91L0.203268 236.508L1082.8 715.208Z" fill="url(#paint0_diamond_877_281)"/>
<path d="M0.203155 715.21L1082.8 236.51L1082.8 1193.91L0.203155 715.21Z" fill="url(#paint1_diamond_877_281)"/>
<path d="M1082.8 479.208L0.203226 957.908L0.203268 0.507765L1082.8 479.208Z" fill="url(#paint2_diamond_877_281)"/>
<path d="M0.203155 479.21L1082.8 0.510197L1082.8 957.911L0.203155 479.21Z" fill="url(#paint3_diamond_877_281)"/>
<path d="M1082.8 957.907L0.203226 1436.61L0.203268 479.207L1082.8 957.907Z" fill="url(#paint4_diamond_877_281)"/>
<path d="M0.203155 957.909L1082.8 479.209L1082.8 1436.61L0.203155 957.909Z" fill="url(#paint5_diamond_877_281)"/>
<defs>
<radialGradient id="paint0_diamond_877_281" cx="0" cy="0" r="1" gradientUnits="userSpaceOnUse" gradientTransform="translate(1082.8 715.208) rotate(-180) scale(1082.59 957.4)">
<stop stop-color="white"/>
<stop offset="1" stop-opacity="0.53"/>
</radialGradient>
<radialGradient id="paint1_diamond_877_281" cx="0" cy="0" r="1" gradientUnits="userSpaceOnUse" gradientTransform="translate(0.203155 715.21) scale(1082.59 957.4)">
<stop stop-color="white"/>
<stop offset="1" stop-opacity="0.53"/>
</radialGradient>
<radialGradient id="paint2_diamond_877_281" cx="0" cy="0" r="1" gradientUnits="userSpaceOnUse" gradientTransform="translate(1082.8 479.208) rotate(-180) scale(1082.59 957.4)">
<stop stop-color="white"/>
<stop offset="1" stop-opacity="0.53"/>
</radialGradient>
<radialGradient id="paint3_diamond_877_281" cx="0" cy="0" r="1" gradientUnits="userSpaceOnUse" gradientTransform="translate(0.203155 479.21) scale(1082.59 957.4)">
<stop stop-color="white"/>
<stop offset="1" stop-opacity="0.53"/>
</radialGradient>
<radialGradient id="paint4_diamond_877_281" cx="0" cy="0" r="1" gradientUnits="userSpaceOnUse" gradientTransform="translate(1082.8 957.907) rotate(-180) scale(1082.59 957.4)">
<stop stop-color="white"/>
<stop offset="1" stop-opacity="0.53"/>
</radialGradient>
<radialGradient id="paint5_diamond_877_281" cx="0" cy="0" r="1" gradientUnits="userSpaceOnUse" gradientTransform="translate(0.203155 957.909) scale(1082.59 957.4)">
<stop stop-color="white"/>
<stop offset="1" stop-opacity="0.53"/>
</radialGradient>
</defs>
</svg>
